<?xml version="1.0" encoding="UTF-8" standalone="no"?>
<!-- Created with Inkscape (http://www.inkscape.org/) -->

<svg
   width="93.998688mm"
   height="92.999428mm"
   viewBox="0 0 93.998688 92.999428"
   version="1.1"
   id="svg20959"
   inkscape:version="1.2.2 (732a01da63, 2022-12-09)"
   sodipodi:docname="prova2puro.svg"
   xmlns:inkscape="http://www.inkscape.org/namespaces/inkscape"
   xmlns:sodipodi="http://sodipodi.sourceforge.net/DTD/sodipodi-0.dtd"
   xmlns="http://www.w3.org/2000/svg"
   xmlns:svg="http://www.w3.org/2000/svg">
  <sodipodi:namedview
     id="namedview20961"
     pagecolor="#ffffff"
     bordercolor="#000000"
     borderopacity="0.25"
     inkscape:showpageshadow="2"
     inkscape:pageopacity="0.0"
     inkscape:pagecheckerboard="0"
     inkscape:deskcolor="#d1d1d1"
     inkscape:document-units="mm"
     showgrid="false"
     inkscape:zoom="1.4788159"
     inkscape:cx="125.10009"
     inkscape:cy="109.88521"
     inkscape:window-width="1920"
     inkscape:window-height="991"
     inkscape:window-x="-9"
     inkscape:window-y="-9"
     inkscape:window-maximized="1"
     inkscape:current-layer="layer1" />
  <defs
     id="defs20956">
    <clipPath
       clipPathUnits="userSpaceOnUse"
       id="clipPath146627">
      <path
         style="fill:#ffffff;fill-rule:evenodd;stroke:#000000;stroke-width:0.0914432px;stroke-linecap:butt;stroke-linejoin:miter;stroke-opacity:1"
         d="m 141.19024,27.713784 c -3.65014,2.955819 -13.63554,5.375283 -18.63987,7.315459 1.30444,2.115855 2.84432,3.942842 2.58028,5.720281 -0.71597,4.819764 -0.69972,10.774664 1.3387,12.829601 0.40867,0.93944 1.03078,1.768049 1.30096,2.743401 1.16229,4.196046 0.47872,7.062351 1.27342,12.999979 0.31768,1.704174 0.0369,3.71869 0.35567,5.33282 0.58699,2.972441 1.32823,5.730799 1.11006,8.31681 -0.4553,5.396579 -1.51878,7.95143 -0.70365,12.35407 0.65076,3.514821 -0.35777,7.029565 -0.76135,10.708575 l -1.41254,12.87661 23.6055,0.1148 23.23602,0.43944 -1.04307,-13.43085 c -0.28657,-3.68997 -1.4121,-7.193754 -0.76134,-10.708575 0.81514,-4.40264 -0.24837,-6.957491 -0.70364,-12.35407 -0.21818,-2.586011 0.52307,-5.344369 1.11006,-8.31681 0.31874,-1.61413 0.038,-3.628646 0.35566,-5.33282 0.7947,-5.937628 0.11114,-8.803933 1.27343,-12.999979 0.27017,-0.975352 0.89228,-1.803961 1.30095,-2.743401 2.03841,-2.054937 2.05467,-8.009837 1.33869,-12.829601 -0.26403,-1.777439 1.27585,-3.604426 2.58029,-5.720281 -5.00433,-1.940176 -14.6017,-4.361577 -18.25184,-7.317396 -7.68969,-1.14128 -12.46739,-3.411136 -20.48239,0.0019 z"
         id="path146629"
         inkscape:connector-curvature="0"
         sodipodi:nodetypes="ccscacsssscccsssscacsccc"
         inkscape:export-filename="C:\Users\gianky\Desktop\tutto gianchi\equitrotting\sito\2019\foto\come prendere le misure\tuta.png"
         inkscape:export-xdpi="90"
         inkscape:export-ydpi="90" />
    </clipPath>
    <clipPath
       clipPathUnits="userSpaceOnUse"
       id="clipPath134254">
      <path
         style="fill:#ffffff;fill-rule:evenodd;stroke:#000000;stroke-width:0.0914432px;stroke-linecap:butt;stroke-linejoin:miter;stroke-opacity:1"
         d="m 45.49879,26.020434 c -3.650144,2.955817 -14.652109,7.163653 -19.656446,9.103816 1.304448,2.115857 2.844323,3.942844 2.580288,5.720294 -0.715971,4.819753 -0.699715,10.774654 1.338696,12.829561 0.408673,0.93947 1.030788,1.768078 1.300954,2.74343 1.162309,4.196046 0.478734,7.062351 1.273431,12.99998 0.317672,1.70416 0.0369,3.718679 0.355672,5.332809 0.586973,2.972451 1.328229,5.730812 1.110062,8.31682 -0.4553,5.396582 -1.518785,7.951441 -0.703646,12.354071 0.650742,3.51482 -0.35777,7.029565 -0.761352,10.708575 l -1.412547,12.87663 23.605503,0.11477 23.236016,0.43946 -1.043051,-13.43086 c -0.286576,-3.68998 -1.412113,-7.193755 -0.761355,-10.708575 0.815131,-4.40263 -0.248362,-6.957489 -0.703643,-12.354071 -0.218186,-2.586008 0.523078,-5.344369 1.110059,-8.31682 0.318751,-1.61413 0.03796,-3.628649 0.355671,-5.332809 0.79469,-5.937629 0.111115,-8.803934 1.273424,-12.99998 0.270169,-0.975352 0.892273,-1.80396 1.300946,-2.74343 2.038413,-2.054907 2.054669,-8.009808 1.338696,-12.829561 -0.264035,-1.77745 1.275855,-3.604437 2.580288,-5.720294 -5.004337,-1.940163 -17.164574,-6.749227 -20.814728,-9.705045 -7.113873,4.098826 -3.750985,3.990915 -8.236331,4.067213 -3.287686,-1.942642 -4.688729,-0.511032 -8.666607,-3.465984 z"
         id="path134256"
         inkscape:connector-curvature="0"
         sodipodi:nodetypes="ccscacsssscccsssscacscccc"
         inkscape:export-filename="C:\Users\gianky\Desktop\tutto gianchi\equitrotting\sito\2019\foto\come prendere le misure\tuta.png"
         inkscape:export-xdpi="90"
         inkscape:export-ydpi="90" />
    </clipPath>
    <clipPath
       clipPathUnits="userSpaceOnUse"
       id="clipPath138407">
      <path
         style="fill:#ffffff;fill-rule:evenodd;stroke:#000000;stroke-width:0.0914432px;stroke-linecap:butt;stroke-linejoin:miter;stroke-opacity:1"
         d="m 45.49879,26.020434 c -3.650144,2.955817 -14.652109,7.163653 -19.656446,9.103816 1.304448,2.115857 2.844323,3.942844 2.580288,5.720294 -0.715971,4.819753 -0.699715,10.774654 1.338696,12.829561 0.408673,0.93947 1.030788,1.768078 1.300954,2.74343 1.162309,4.196046 0.478734,7.062351 1.273431,12.99998 0.317672,1.70416 0.0369,3.718679 0.355672,5.332809 0.586973,2.972451 1.328229,5.730812 1.110062,8.31682 -0.4553,5.396582 -1.518785,7.951441 -0.703646,12.354071 0.650742,3.51482 -0.35777,7.029565 -0.761352,10.708575 l -1.412547,12.87663 23.605503,0.11477 23.236016,0.43946 -1.043051,-13.43086 c -0.286576,-3.68998 -1.412113,-7.193755 -0.761355,-10.708575 0.815131,-4.40263 -0.248362,-6.957489 -0.703643,-12.354071 -0.218186,-2.586008 0.523078,-5.344369 1.110059,-8.31682 0.318751,-1.61413 0.03796,-3.628649 0.355671,-5.332809 0.79469,-5.937629 0.111115,-8.803934 1.273424,-12.99998 0.270169,-0.975352 0.892273,-1.80396 1.300946,-2.74343 2.038413,-2.054907 2.054669,-8.009808 1.338696,-12.829561 -0.264035,-1.77745 1.275855,-3.604437 2.580288,-5.720294 -5.004337,-1.940163 -17.164574,-6.749227 -20.814728,-9.705045 -7.113873,4.098826 -3.750985,3.990915 -8.236331,4.067213 -3.287686,-1.942642 -4.688729,-0.511032 -8.666607,-3.465984 z"
         id="path138409"
         inkscape:connector-curvature="0"
         sodipodi:nodetypes="ccscacsssscccsssscacscccc"
         inkscape:export-filename="C:\Users\gianky\Desktop\tutto gianchi\equitrotting\sito\2019\foto\come prendere le misure\tuta.png"
         inkscape:export-xdpi="90"
         inkscape:export-ydpi="90" />
    </clipPath>
    <clipPath
       clipPathUnits="userSpaceOnUse"
       id="clipPath138441">
      <path
         style="fill:#ffffff;fill-rule:evenodd;stroke:#000000;stroke-width:0.0914432px;stroke-linecap:butt;stroke-linejoin:miter;stroke-opacity:1"
         d="m 45.49879,26.020434 c -3.650144,2.955817 -14.652109,7.163653 -19.656446,9.103816 1.304448,2.115857 2.844323,3.942844 2.580288,5.720294 -0.715971,4.819753 -0.699715,10.774654 1.338696,12.829561 0.408673,0.93947 1.030788,1.768078 1.300954,2.74343 1.162309,4.196046 0.478734,7.062351 1.273431,12.99998 0.317672,1.70416 0.0369,3.718679 0.355672,5.332809 0.586973,2.972451 1.328229,5.730812 1.110062,8.31682 -0.4553,5.396582 -1.518785,7.951441 -0.703646,12.354071 0.650742,3.51482 -0.35777,7.029565 -0.761352,10.708575 l -1.412547,12.87663 23.605503,0.11477 23.236016,0.43946 -1.043051,-13.43086 c -0.286576,-3.68998 -1.412113,-7.193755 -0.761355,-10.708575 0.815131,-4.40263 -0.248362,-6.957489 -0.703643,-12.354071 -0.218186,-2.586008 0.523078,-5.344369 1.110059,-8.31682 0.318751,-1.61413 0.03796,-3.628649 0.355671,-5.332809 0.79469,-5.937629 0.111115,-8.803934 1.273424,-12.99998 0.270169,-0.975352 0.892273,-1.80396 1.300946,-2.74343 2.038413,-2.054907 2.054669,-8.009808 1.338696,-12.829561 -0.264035,-1.77745 1.275855,-3.604437 2.580288,-5.720294 -5.004337,-1.940163 -17.164574,-6.749227 -20.814728,-9.705045 -7.113873,4.098826 -3.750985,3.990915 -8.236331,4.067213 -3.287686,-1.942642 -4.688729,-0.511032 -8.666607,-3.465984 z"
         id="path138443"
         inkscape:connector-curvature="0"
         sodipodi:nodetypes="ccscacsssscccsssscacscccc"
         inkscape:export-filename="C:\Users\gianky\Desktop\tutto gianchi\equitrotting\sito\2019\foto\come prendere le misure\tuta.png"
         inkscape:export-xdpi="90"
         inkscape:export-ydpi="90" />
    </clipPath>
    <clipPath
       clipPathUnits="userSpaceOnUse"
       id="clipPath138479">
      <path
         style="fill:#ffffff;fill-rule:evenodd;stroke:#000000;stroke-width:0.0914432px;stroke-linecap:butt;stroke-linejoin:miter;stroke-opacity:1"
         d="m 45.49879,26.020434 c -3.650144,2.955817 -14.652109,7.163653 -19.656446,9.103816 1.304448,2.115857 2.844323,3.942844 2.580288,5.720294 -0.715971,4.819753 -0.699715,10.774654 1.338696,12.829561 0.408673,0.93947 1.030788,1.768078 1.300954,2.74343 1.162309,4.196046 0.478734,7.062351 1.273431,12.99998 0.317672,1.70416 0.0369,3.718679 0.355672,5.332809 0.586973,2.972451 1.328229,5.730812 1.110062,8.31682 -0.4553,5.396582 -1.518785,7.951441 -0.703646,12.354071 0.650742,3.51482 -0.35777,7.029565 -0.761352,10.708575 l -1.412547,12.87663 23.605503,0.11477 23.236016,0.43946 -1.043051,-13.43086 c -0.286576,-3.68998 -1.412113,-7.193755 -0.761355,-10.708575 0.815131,-4.40263 -0.248362,-6.957489 -0.703643,-12.354071 -0.218186,-2.586008 0.523078,-5.344369 1.110059,-8.31682 0.318751,-1.61413 0.03796,-3.628649 0.355671,-5.332809 0.79469,-5.937629 0.111115,-8.803934 1.273424,-12.99998 0.270169,-0.975352 0.892273,-1.80396 1.300946,-2.74343 2.038413,-2.054907 2.054669,-8.009808 1.338696,-12.829561 -0.264035,-1.77745 1.275855,-3.604437 2.580288,-5.720294 -5.004337,-1.940163 -17.164574,-6.749227 -20.814728,-9.705045 -7.113873,4.098826 -3.750985,3.990915 -8.236331,4.067213 -3.287686,-1.942642 -4.688729,-0.511032 -8.666607,-3.465984 z"
         id="path138481"
         inkscape:connector-curvature="0"
         sodipodi:nodetypes="ccscacsssscccsssscacscccc"
         inkscape:export-filename="C:\Users\gianky\Desktop\tutto gianchi\equitrotting\sito\2019\foto\come prendere le misure\tuta.png"
         inkscape:export-xdpi="90"
         inkscape:export-ydpi="90" />
    </clipPath>
    <clipPath
       clipPathUnits="userSpaceOnUse"
       id="clipPath138513">
      <path
         style="fill:#ffffff;fill-rule:evenodd;stroke:#000000;stroke-width:0.0914432px;stroke-linecap:butt;stroke-linejoin:miter;stroke-opacity:1"
         d="m 45.49879,26.020434 c -3.650144,2.955817 -14.652109,7.163653 -19.656446,9.103816 1.304448,2.115857 2.844323,3.942844 2.580288,5.720294 -0.715971,4.819753 -0.699715,10.774654 1.338696,12.829561 0.408673,0.93947 1.030788,1.768078 1.300954,2.74343 1.162309,4.196046 0.478734,7.062351 1.273431,12.99998 0.317672,1.70416 0.0369,3.718679 0.355672,5.332809 0.586973,2.972451 1.328229,5.730812 1.110062,8.31682 -0.4553,5.396582 -1.518785,7.951441 -0.703646,12.354071 0.650742,3.51482 -0.35777,7.029565 -0.761352,10.708575 l -1.412547,12.87663 23.605503,0.11477 23.236016,0.43946 -1.043051,-13.43086 c -0.286576,-3.68998 -1.412113,-7.193755 -0.761355,-10.708575 0.815131,-4.40263 -0.248362,-6.957489 -0.703643,-12.354071 -0.218186,-2.586008 0.523078,-5.344369 1.110059,-8.31682 0.318751,-1.61413 0.03796,-3.628649 0.355671,-5.332809 0.79469,-5.937629 0.111115,-8.803934 1.273424,-12.99998 0.270169,-0.975352 0.892273,-1.80396 1.300946,-2.74343 2.038413,-2.054907 2.054669,-8.009808 1.338696,-12.829561 -0.264035,-1.77745 1.275855,-3.604437 2.580288,-5.720294 -5.004337,-1.940163 -17.164574,-6.749227 -20.814728,-9.705045 -7.113873,4.098826 -3.750985,3.990915 -8.236331,4.067213 -3.287686,-1.942642 -4.688729,-0.511032 -8.666607,-3.465984 z"
         id="path138515"
         inkscape:connector-curvature="0"
         sodipodi:nodetypes="ccscacsssscccsssscacscccc"
         inkscape:export-filename="C:\Users\gianky\Desktop\tutto gianchi\equitrotting\sito\2019\foto\come prendere le misure\tuta.png"
         inkscape:export-xdpi="90"
         inkscape:export-ydpi="90" />
    </clipPath>
    <clipPath
       clipPathUnits="userSpaceOnUse"
       id="clipPath138711">
      <path
         style="fill:#ffffff;fill-rule:evenodd;stroke:#000000;stroke-width:0.0914432px;stroke-linecap:butt;stroke-linejoin:miter;stroke-opacity:1"
         d="m 45.49879,26.020434 c -3.650144,2.955817 -14.652109,7.163653 -19.656446,9.103816 1.304448,2.115857 2.844323,3.942844 2.580288,5.720294 -0.715971,4.819753 -0.699715,10.774654 1.338696,12.829561 0.408673,0.93947 1.030788,1.768078 1.300954,2.74343 1.162309,4.196046 0.478734,7.062351 1.273431,12.99998 0.317672,1.70416 0.0369,3.718679 0.355672,5.332809 0.586973,2.972451 1.328229,5.730812 1.110062,8.31682 -0.4553,5.396582 -1.518785,7.951441 -0.703646,12.354071 0.650742,3.51482 -0.35777,7.029565 -0.761352,10.708575 l -1.412547,12.87663 23.605503,0.11477 23.236016,0.43946 -1.043051,-13.43086 c -0.286576,-3.68998 -1.412113,-7.193755 -0.761355,-10.708575 0.815131,-4.40263 -0.248362,-6.957489 -0.703643,-12.354071 -0.218186,-2.586008 0.523078,-5.344369 1.110059,-8.31682 0.318751,-1.61413 0.03796,-3.628649 0.355671,-5.332809 0.79469,-5.937629 0.111115,-8.803934 1.273424,-12.99998 0.270169,-0.975352 0.892273,-1.80396 1.300946,-2.74343 2.038413,-2.054907 2.054669,-8.009808 1.338696,-12.829561 -0.264035,-1.77745 1.275855,-3.604437 2.580288,-5.720294 -5.004337,-1.940163 -17.164574,-6.749227 -20.814728,-9.705045 -7.113873,4.098826 -3.750985,3.990915 -8.236331,4.067213 -3.287686,-1.942642 -4.688729,-0.511032 -8.666607,-3.465984 z"
         id="path138713"
         inkscape:connector-curvature="0"
         sodipodi:nodetypes="ccscacsssscccsssscacscccc"
         inkscape:export-filename="C:\Users\gianky\Desktop\tutto gianchi\equitrotting\sito\2019\foto\come prendere le misure\tuta.png"
         inkscape:export-xdpi="90"
         inkscape:export-ydpi="90" />
    </clipPath>
    <clipPath
       clipPathUnits="userSpaceOnUse"
       id="clipPath138407-7">
      <path
         style="fill:#ffffff;fill-rule:evenodd;stroke:#000000;stroke-width:0.0914432px;stroke-linecap:butt;stroke-linejoin:miter;stroke-opacity:1"
         d="m 45.49879,26.020434 c -3.650144,2.955817 -14.652109,7.163653 -19.656446,9.103816 1.304448,2.115857 2.844323,3.942844 2.580288,5.720294 -0.715971,4.819753 -0.699715,10.774654 1.338696,12.829561 0.408673,0.93947 1.030788,1.768078 1.300954,2.74343 1.162309,4.196046 0.478734,7.062351 1.273431,12.99998 0.317672,1.70416 0.0369,3.718679 0.355672,5.332809 0.586973,2.972451 1.328229,5.730812 1.110062,8.31682 -0.4553,5.396582 -1.518785,7.951441 -0.703646,12.354071 0.650742,3.51482 -0.35777,7.029565 -0.761352,10.708575 l -1.412547,12.87663 23.605503,0.11477 23.236016,0.43946 -1.043051,-13.43086 c -0.286576,-3.68998 -1.412113,-7.193755 -0.761355,-10.708575 0.815131,-4.40263 -0.248362,-6.957489 -0.703643,-12.354071 -0.218186,-2.586008 0.523078,-5.344369 1.110059,-8.31682 0.318751,-1.61413 0.03796,-3.628649 0.355671,-5.332809 0.79469,-5.937629 0.111115,-8.803934 1.273424,-12.99998 0.270169,-0.975352 0.892273,-1.80396 1.300946,-2.74343 2.038413,-2.054907 2.054669,-8.009808 1.338696,-12.829561 -0.264035,-1.77745 1.275855,-3.604437 2.580288,-5.720294 -5.004337,-1.940163 -17.164574,-6.749227 -20.814728,-9.705045 -7.113873,4.098826 -3.750985,3.990915 -8.236331,4.067213 -3.287686,-1.942642 -4.688729,-0.511032 -8.666607,-3.465984 z"
         id="path138409-5"
         inkscape:connector-curvature="0"
         sodipodi:nodetypes="ccscacsssscccsssscacscccc"
         inkscape:export-filename="C:\Users\gianky\Desktop\tutto gianchi\equitrotting\sito\2019\foto\come prendere le misure\tuta.png"
         inkscape:export-xdpi="90"
         inkscape:export-ydpi="90" />
    </clipPath>
    <clipPath
       clipPathUnits="userSpaceOnUse"
       id="clipPath138441-7">
      <path
         style="fill:#ffffff;fill-rule:evenodd;stroke:#000000;stroke-width:0.0914432px;stroke-linecap:butt;stroke-linejoin:miter;stroke-opacity:1"
         d="m 45.49879,26.020434 c -3.650144,2.955817 -14.652109,7.163653 -19.656446,9.103816 1.304448,2.115857 2.844323,3.942844 2.580288,5.720294 -0.715971,4.819753 -0.699715,10.774654 1.338696,12.829561 0.408673,0.93947 1.030788,1.768078 1.300954,2.74343 1.162309,4.196046 0.478734,7.062351 1.273431,12.99998 0.317672,1.70416 0.0369,3.718679 0.355672,5.332809 0.586973,2.972451 1.328229,5.730812 1.110062,8.31682 -0.4553,5.396582 -1.518785,7.951441 -0.703646,12.354071 0.650742,3.51482 -0.35777,7.029565 -0.761352,10.708575 l -1.412547,12.87663 23.605503,0.11477 23.236016,0.43946 -1.043051,-13.43086 c -0.286576,-3.68998 -1.412113,-7.193755 -0.761355,-10.708575 0.815131,-4.40263 -0.248362,-6.957489 -0.703643,-12.354071 -0.218186,-2.586008 0.523078,-5.344369 1.110059,-8.31682 0.318751,-1.61413 0.03796,-3.628649 0.355671,-5.332809 0.79469,-5.937629 0.111115,-8.803934 1.273424,-12.99998 0.270169,-0.975352 0.892273,-1.80396 1.300946,-2.74343 2.038413,-2.054907 2.054669,-8.009808 1.338696,-12.829561 -0.264035,-1.77745 1.275855,-3.604437 2.580288,-5.720294 -5.004337,-1.940163 -17.164574,-6.749227 -20.814728,-9.705045 -7.113873,4.098826 -3.750985,3.990915 -8.236331,4.067213 -3.287686,-1.942642 -4.688729,-0.511032 -8.666607,-3.465984 z"
         id="path138443-9"
         inkscape:connector-curvature="0"
         sodipodi:nodetypes="ccscacsssscccsssscacscccc"
         inkscape:export-filename="C:\Users\gianky\Desktop\tutto gianchi\equitrotting\sito\2019\foto\come prendere le misure\tuta.png"
         inkscape:export-xdpi="90"
         inkscape:export-ydpi="90" />
    </clipPath>
    <clipPath
       clipPathUnits="userSpaceOnUse"
       id="clipPath138479-5">
      <path
         style="fill:#ffffff;fill-rule:evenodd;stroke:#000000;stroke-width:0.0914432px;stroke-linecap:butt;stroke-linejoin:miter;stroke-opacity:1"
         d="m 45.49879,26.020434 c -3.650144,2.955817 -14.652109,7.163653 -19.656446,9.103816 1.304448,2.115857 2.844323,3.942844 2.580288,5.720294 -0.715971,4.819753 -0.699715,10.774654 1.338696,12.829561 0.408673,0.93947 1.030788,1.768078 1.300954,2.74343 1.162309,4.196046 0.478734,7.062351 1.273431,12.99998 0.317672,1.70416 0.0369,3.718679 0.355672,5.332809 0.586973,2.972451 1.328229,5.730812 1.110062,8.31682 -0.4553,5.396582 -1.518785,7.951441 -0.703646,12.354071 0.650742,3.51482 -0.35777,7.029565 -0.761352,10.708575 l -1.412547,12.87663 23.605503,0.11477 23.236016,0.43946 -1.043051,-13.43086 c -0.286576,-3.68998 -1.412113,-7.193755 -0.761355,-10.708575 0.815131,-4.40263 -0.248362,-6.957489 -0.703643,-12.354071 -0.218186,-2.586008 0.523078,-5.344369 1.110059,-8.31682 0.318751,-1.61413 0.03796,-3.628649 0.355671,-5.332809 0.79469,-5.937629 0.111115,-8.803934 1.273424,-12.99998 0.270169,-0.975352 0.892273,-1.80396 1.300946,-2.74343 2.038413,-2.054907 2.054669,-8.009808 1.338696,-12.829561 -0.264035,-1.77745 1.275855,-3.604437 2.580288,-5.720294 -5.004337,-1.940163 -17.164574,-6.749227 -20.814728,-9.705045 -7.113873,4.098826 -3.750985,3.990915 -8.236331,4.067213 -3.287686,-1.942642 -4.688729,-0.511032 -8.666607,-3.465984 z"
         id="path138481-3"
         inkscape:connector-curvature="0"
         sodipodi:nodetypes="ccscacsssscccsssscacscccc"
         inkscape:export-filename="C:\Users\gianky\Desktop\tutto gianchi\equitrotting\sito\2019\foto\come prendere le misure\tuta.png"
         inkscape:export-xdpi="90"
         inkscape:export-ydpi="90" />
    </clipPath>
    <clipPath
       clipPathUnits="userSpaceOnUse"
       id="clipPath138513-5">
      <path
         style="fill:#ffffff;fill-rule:evenodd;stroke:#000000;stroke-width:0.0914432px;stroke-linecap:butt;stroke-linejoin:miter;stroke-opacity:1"
         d="m 45.49879,26.020434 c -3.650144,2.955817 -14.652109,7.163653 -19.656446,9.103816 1.304448,2.115857 2.844323,3.942844 2.580288,5.720294 -0.715971,4.819753 -0.699715,10.774654 1.338696,12.829561 0.408673,0.93947 1.030788,1.768078 1.300954,2.74343 1.162309,4.196046 0.478734,7.062351 1.273431,12.99998 0.317672,1.70416 0.0369,3.718679 0.355672,5.332809 0.586973,2.972451 1.328229,5.730812 1.110062,8.31682 -0.4553,5.396582 -1.518785,7.951441 -0.703646,12.354071 0.650742,3.51482 -0.35777,7.029565 -0.761352,10.708575 l -1.412547,12.87663 23.605503,0.11477 23.236016,0.43946 -1.043051,-13.43086 c -0.286576,-3.68998 -1.412113,-7.193755 -0.761355,-10.708575 0.815131,-4.40263 -0.248362,-6.957489 -0.703643,-12.354071 -0.218186,-2.586008 0.523078,-5.344369 1.110059,-8.31682 0.318751,-1.61413 0.03796,-3.628649 0.355671,-5.332809 0.79469,-5.937629 0.111115,-8.803934 1.273424,-12.99998 0.270169,-0.975352 0.892273,-1.80396 1.300946,-2.74343 2.038413,-2.054907 2.054669,-8.009808 1.338696,-12.829561 -0.264035,-1.77745 1.275855,-3.604437 2.580288,-5.720294 -5.004337,-1.940163 -17.164574,-6.749227 -20.814728,-9.705045 -7.113873,4.098826 -3.750985,3.990915 -8.236331,4.067213 -3.287686,-1.942642 -4.688729,-0.511032 -8.666607,-3.465984 z"
         id="path138515-9"
         inkscape:connector-curvature="0"
         sodipodi:nodetypes="ccscacsssscccsssscacscccc"
         inkscape:export-filename="C:\Users\gianky\Desktop\tutto gianchi\equitrotting\sito\2019\foto\come prendere le misure\tuta.png"
         inkscape:export-xdpi="90"
         inkscape:export-ydpi="90" />
    </clipPath>
    <clipPath
       clipPathUnits="userSpaceOnUse"
       id="clipPath138711-0">
      <path
         style="fill:#ffffff;fill-rule:evenodd;stroke:#000000;stroke-width:0.0914432px;stroke-linecap:butt;stroke-linejoin:miter;stroke-opacity:1"
         d="m 45.49879,26.020434 c -3.650144,2.955817 -14.652109,7.163653 -19.656446,9.103816 1.304448,2.115857 2.844323,3.942844 2.580288,5.720294 -0.715971,4.819753 -0.699715,10.774654 1.338696,12.829561 0.408673,0.93947 1.030788,1.768078 1.300954,2.74343 1.162309,4.196046 0.478734,7.062351 1.273431,12.99998 0.317672,1.70416 0.0369,3.718679 0.355672,5.332809 0.586973,2.972451 1.328229,5.730812 1.110062,8.31682 -0.4553,5.396582 -1.518785,7.951441 -0.703646,12.354071 0.650742,3.51482 -0.35777,7.029565 -0.761352,10.708575 l -1.412547,12.87663 23.605503,0.11477 23.236016,0.43946 -1.043051,-13.43086 c -0.286576,-3.68998 -1.412113,-7.193755 -0.761355,-10.708575 0.815131,-4.40263 -0.248362,-6.957489 -0.703643,-12.354071 -0.218186,-2.586008 0.523078,-5.344369 1.110059,-8.31682 0.318751,-1.61413 0.03796,-3.628649 0.355671,-5.332809 0.79469,-5.937629 0.111115,-8.803934 1.273424,-12.99998 0.270169,-0.975352 0.892273,-1.80396 1.300946,-2.74343 2.038413,-2.054907 2.054669,-8.009808 1.338696,-12.829561 -0.264035,-1.77745 1.275855,-3.604437 2.580288,-5.720294 -5.004337,-1.940163 -17.164574,-6.749227 -20.814728,-9.705045 -7.113873,4.098826 -3.750985,3.990915 -8.236331,4.067213 -3.287686,-1.942642 -4.688729,-0.511032 -8.666607,-3.465984 z"
         id="path138713-1"
         inkscape:connector-curvature="0"
         sodipodi:nodetypes="ccscacsssscccsssscacscccc"
         inkscape:export-filename="C:\Users\gianky\Desktop\tutto gianchi\equitrotting\sito\2019\foto\come prendere le misure\tuta.png"
         inkscape:export-xdpi="90"
         inkscape:export-ydpi="90" />
    </clipPath>
    <clipPath
       clipPathUnits="userSpaceOnUse"
       id="clipPath134254-6">
      <path
         style="fill:#ffffff;fill-rule:evenodd;stroke:#000000;stroke-width:0.0914432px;stroke-linecap:butt;stroke-linejoin:miter;stroke-opacity:1"
         d="m 45.49879,26.020434 c -3.650144,2.955817 -14.652109,7.163653 -19.656446,9.103816 1.304448,2.115857 2.844323,3.942844 2.580288,5.720294 -0.715971,4.819753 -0.699715,10.774654 1.338696,12.829561 0.408673,0.93947 1.030788,1.768078 1.300954,2.74343 1.162309,4.196046 0.478734,7.062351 1.273431,12.99998 0.317672,1.70416 0.0369,3.718679 0.355672,5.332809 0.586973,2.972451 1.328229,5.730812 1.110062,8.31682 -0.4553,5.396582 -1.518785,7.951441 -0.703646,12.354071 0.650742,3.51482 -0.35777,7.029565 -0.761352,10.708575 l -1.412547,12.87663 23.605503,0.11477 23.236016,0.43946 -1.043051,-13.43086 c -0.286576,-3.68998 -1.412113,-7.193755 -0.761355,-10.708575 0.815131,-4.40263 -0.248362,-6.957489 -0.703643,-12.354071 -0.218186,-2.586008 0.523078,-5.344369 1.110059,-8.31682 0.318751,-1.61413 0.03796,-3.628649 0.355671,-5.332809 0.79469,-5.937629 0.111115,-8.803934 1.273424,-12.99998 0.270169,-0.975352 0.892273,-1.80396 1.300946,-2.74343 2.038413,-2.054907 2.054669,-8.009808 1.338696,-12.829561 -0.264035,-1.77745 1.275855,-3.604437 2.580288,-5.720294 -5.004337,-1.940163 -17.164574,-6.749227 -20.814728,-9.705045 -7.113873,4.098826 -3.750985,3.990915 -8.236331,4.067213 -3.287686,-1.942642 -4.688729,-0.511032 -8.666607,-3.465984 z"
         id="path134256-0"
         inkscape:connector-curvature="0"
         sodipodi:nodetypes="ccscacsssscccsssscacscccc"
         inkscape:export-filename="C:\Users\gianky\Desktop\tutto gianchi\equitrotting\sito\2019\foto\come prendere le misure\tuta.png"
         inkscape:export-xdpi="90"
         inkscape:export-ydpi="90" />
    </clipPath>
  </defs>
  <g
     inkscape:label="Livello 1"
     inkscape:groupmode="layer"
     id="layer1"
     transform="translate(-13.831982,-68.006312)">
    <path
       style="color:#000000;fill:#000000;fill-rule:evenodd;stroke-width:0.087323px;-inkscape-stroke:none"
       d="m 33.180383,80.463042 c -10.130099,3.884964 -9.018263,11.407344 -9.432941,18.435774 -3.153179,7.402634 -9.432407,37.569944 -9.869043,39.874044 -0.165845,1.97703 7.11029,2.46058 8.980582,4.03832 2.396414,-11.21975 3.118303,-13.94958 8.657588,-28.72474 9.039637,-16.873724 6.76341,-18.442414 7.145391,-21.863724 -0.817271,-6.15715 -1.031845,-8.83455 -5.481577,-11.759674 z"
       id="colore_1_manica" />
    <path
       style="color:#000000;fill:#000000;fill-rule:evenodd;-inkscape-stroke:none"
       d="m 33.185547,80.414062 -0.02148,0.0078 c -5.074339,1.946045 -7.3413,4.811257 -8.384765,8.066406 -1.043082,3.253952 -0.86938,6.894486 -1.076172,10.404297 -7.6e-5,0.0013 7.6e-5,0.0026 0,0.0039 -1.580845,3.717855 -3.934218,13.093485 -5.951172,21.841795 -2.018668,8.75575 -3.697059,16.87193 -3.916015,18.02734 v 0.002 l -0.002,0.002 c -0.02185,0.26045 0.08108,0.49728 0.273438,0.70899 0.192362,0.2117 0.475441,0.40075 0.822266,0.57617 0.693648,0.35084 1.647245,0.64685 2.664062,0.92968 1.016817,0.28284 2.096463,0.55212 3.037109,0.84961 0.940647,0.29749 1.741471,0.62362 2.199219,1.00977 l 0.05664,0.0469 0.01563,-0.0703 c 2.395894,-11.21732 3.116064,-13.94545 8.652343,-28.71289 l 0.002,-0.006 c 4.518013,-8.43429 6.212367,-13.04734 6.822265,-15.982418 0.610065,-2.935884 0.136325,-4.190208 0.326172,-5.890625 v -0.0059 -0.0059 c -0.408592,-3.078248 -0.665699,-5.288966 -1.380859,-7.101563 -0.715161,-1.812596 -1.889437,-3.22371 -4.119141,-4.689453 z m -0.01172,0.09961 c 2.20588,1.454181 3.361796,2.842004 4.068359,4.632812 0.708876,1.796668 0.968275,4.003135 1.376954,7.082032 -0.189157,1.715641 0.279862,2.956562 -0.326172,5.873046 -0.607225,2.922218 -2.295626,7.529828 -6.814453,15.964848 l -0.002,0.002 v 0.002 c -5.528305,14.74588 -6.26348,17.51624 -8.648437,28.67969 -0.481682,-0.38819 -1.252279,-0.70917 -2.171875,-1 -0.944464,-0.2987 -2.023792,-0.56721 -3.039063,-0.84961 -1.01527,-0.2824 -1.966009,-0.57866 -2.648437,-0.92383 -0.341214,-0.17258 -0.615762,-0.35732 -0.796875,-0.55664 -0.180635,-0.19879 -0.26899,-0.40756 -0.25,-0.64062 5e-5,-6.2e-4 -5.2e-5,-0.001 0,-0.002 0.218239,-1.15132 1.896085,-9.26677 3.914062,-18.01953 2.018396,-8.75457 4.378869,-18.15054 5.951172,-21.841794 l 0.0039,-0.0078 v -0.0059 c 0.207527,-3.517416 0.0335,-7.152336 1.070312,-10.386719 1.03514,-3.229177 3.273929,-6.063269 8.3125,-8.001953 z"
       id="path24107" />
    <path
       style="color:#000000;fill:#ff0000;fill-rule:evenodd;stroke-width:0.087323px;-inkscape-stroke:none"
       d="m 88.482269,80.177932 c 10.130097,3.884784 9.018268,11.407254 9.432939,18.435684 3.153172,7.402554 9.432412,37.569954 9.869042,39.873954 0.16584,1.97703 -7.11027,2.46067 -8.980583,4.03841 -2.396412,-11.21966 -3.118301,-13.94967 -8.657583,-28.72482 -9.039653,-16.873734 -6.763421,-18.442414 -7.145405,-21.863554 0.817272,-6.15715 1.031842,-8.83473 5.48159,-11.759674 z"
       id="colore_2_manica_sinistra" />
    <path
       style="color:#000000;fill:#000000;fill-rule:evenodd;-inkscape-stroke:none"
       d="m 88.476562,80.128906 -0.01758,0.01172 c -2.229712,1.465653 -3.405932,2.876834 -4.121093,4.689453 -0.715162,1.812619 -0.972267,4.023315 -1.38086,7.101563 v 0.0059 0.0059 c 0.189849,1.700332 -0.283894,2.954764 0.326172,5.890625 0.610066,2.935863 2.303411,7.549583 6.824219,15.988283 5.536276,14.76743 6.258404,17.49566 8.654297,28.71289 l 0.01367,0.0703 0.05664,-0.0469 c 0.457754,-0.38614 1.260533,-0.71226 2.201173,-1.00976 0.94065,-0.2975 2.01834,-0.56677 3.03516,-0.84961 1.01681,-0.28284 1.97237,-0.57884 2.66602,-0.92969 0.34682,-0.17542 0.62795,-0.36447 0.82031,-0.57617 0.19236,-0.2117 0.29528,-0.44853 0.27344,-0.70899 v -0.002 l -0.002,-0.004 c -0.21895,-1.15537 -1.89734,-9.26964 -3.91601,-18.02539 -2.01696,-8.74832 -4.370338,-18.12399 -5.95118,-21.841799 v -0.0039 C 97.752151,95.09752 97.92585,91.456986 96.882768,88.203034 95.839302,84.947885 93.572342,82.082583 88.498003,80.136628 Z m 0.01172,0.09961 c 5.038571,1.938594 7.27736,4.772775 8.3125,8.001953 1.03681,3.234382 0.862788,6.867349 1.070313,10.384765 v 0.0078 l 0.0039,0.0078 c 1.572299,3.691216 3.932775,13.087236 5.951175,21.841806 2.01794,8.75256 3.69577,16.86795 3.91406,18.01952 0.0196,0.2338 -0.0689,0.44325 -0.25,0.64258 -0.18111,0.19932 -0.45566,0.38405 -0.79687,0.55664 -0.68243,0.34517 -1.63317,0.64141 -2.64844,0.92382 -1.01527,0.28242 -2.0946,0.55091 -3.03906,0.84962 -0.9196,0.29084 -1.690194,0.6118 -2.171881,1 -2.384955,-11.16337 -3.118182,-13.93382 -8.646484,-28.67968 l -0.002,-0.002 v -0.002 c -4.518836,-8.43502 -6.209181,-13.04265 -6.816406,-15.964849 -0.606036,-2.916462 -0.135061,-4.15749 -0.324219,-5.873047 0.408679,-3.078896 0.666123,-5.28534 1.375,-7.082031 0.706565,-1.79083 1.862472,-3.17872 4.068359,-4.632812 z"
       id="colore_2_manica" />
    <path
       style="color:#000000;fill:#000000;fill-rule:evenodd;stroke-width:0.087323px;-inkscape-stroke:none"
       d="m 52.169188,71.959226 c -3.537922,2.781097 -14.201635,6.739918 -19.052116,8.565391 1.264344,1.990659 2.756876,3.709559 2.500958,5.381769 -0.69396,4.53468 -0.678204,10.1373 1.29754,12.07068 0.396107,0.88393 0.999094,1.66352 1.260956,2.581054 1.126574,3.94789 0.464015,6.64464 1.23428,12.23095 0.307905,1.60346 0.03577,3.49875 0.344737,5.01733 0.568927,2.7967 1.287392,5.39181 1.075933,7.82479 -0.441304,5.07739 -1.472092,7.48115 -0.682013,11.62326 0.630736,3.30695 -0.34677,6.61381 -0.737945,10.07519 l -1.369119,12.11479 22.879758,0.108 22.52165,0.41355 -1.010992,-12.63634 c -0.277764,-3.47177 -1.368701,-6.76824 -0.737947,-10.07519 0.79007,-4.14211 -0.240719,-6.54587 -0.682019,-11.62326 -0.211476,-2.43298 0.507015,-5.02809 1.075941,-7.82479 0.308956,-1.51858 0.03684,-3.41387 0.344736,-5.01733 0.770264,-5.58631 0.1077,-8.28306 1.234269,-12.23095 0.261864,-0.917534 0.864844,-1.697124 1.260954,-2.581054 1.975744,-1.93338 1.991505,-7.536 1.297538,-12.07068 -0.255917,-1.67221 1.236633,-3.39111 2.500958,-5.381769 -4.850485,-1.825473 -16.636865,-6.350032 -20.174796,-9.130949 -6.895159,3.856285 -3.635662,3.754736 -7.983108,3.826528 -3.186607,-1.827624 -4.544574,-0.480769 -8.400153,-3.26097 z"
       id="colore_1_corpo" />
    <path
       style="color:#000000;fill:#000000;-inkscape-stroke:none"
       d="m 38.806641,151.20312 v 0.0879 h 43.658203 v -0.0879 z"
       id="path629-3-0-83" />
    <path
       style="fill:#ff0000;stroke:none;stroke-width:0.1"
       d="m 25.361463,34.70516 62.291314,73.41476 18.242453,-74.304636 c 0,0 -17.797517,-21.801959 -20.022207,-21.801959 -2.224688,0 -34.70516,-5.3392557 -37.374787,-5.3392557 -2.669628,0 -16.017767,-0.8898761 -18.242455,1.7797517 -2.224691,2.669628 -3.559503,1.3348139 -5.784194,6.229131 -2.22469,4.894318 0.889876,20.022208 0.889876,20.022208 z"
       id="colore_2_corpo"
       clip-path="url(#clipPath134254-6)"
       transform="matrix(0.9692553,0,0,0.9408426,8.0692443,47.478155)" />
    <path
       style="color:#000000;fill:#000000;-inkscape-stroke:none"
       d="m 67.367187,97.109375 -0.002,0.05664 -0.08594,2.761718 3.443359,2.585936 H 75.25 l 3.361328,-2.585936 v -2.818359 z m 0.113282,0.117187 h 11.011718 v 2.642579 l -3.283203,2.525389 h -4.445312 l -3.363281,-2.525389 z"
       id="colore_1_taschino" />
    <path
       style="color:#000000;fill:#ff0000;stroke-width:0.0792229px;-inkscape-stroke:none"
       d="m 22.858978,142.81117 c -3.661009,-1.30879 -8.323704,-2.3662 -8.632796,-4.51614 l 3.663531,-18.94229 1.33547,14.5782 4.896728,1.84322 z"
       id="colore_2_polsino" />
    <path
       style="color:#000000;fill:#000000;stroke-width:0.0990287;-inkscape-stroke:none"
       d="m 22.8872,142.86543 -0.0395,-0.0142 c -1.828915,-0.65383 -3.91014,-1.24537 -5.575139,-1.94334 -0.832499,-0.34899 -1.560903,-0.72438 -2.103122,-1.14977 -0.542218,-0.42539 -0.90055,-0.90297 -0.980121,-1.45644 l -0.0011,-0.008 3.66513,-18.95019 0.07335,0.005 1.333039,14.5511 4.905161,1.84654 z m -0.05679,-0.10769 1.248404,-6.95534 -4.888233,-1.84016 -1.314111,-14.34393 -3.6118,18.67581 c 0.0767,0.51905 0.415829,0.97811 0.947178,1.39496 0.533375,0.41846 1.257306,0.79221 2.086742,1.13991 1.647275,0.69055 3.70912,1.27924 5.53182,1.92875 z"
       id="colore_2_polso" />
    <path
       style="color:#000000;fill:#ff0000;stroke-width:0.0990287;-inkscape-stroke:none"
       d="m 24.338728,134.57597 -4.18677,-1.39785 -1.651919,-16.46424 0.560043,-0.0715 1.609694,16.04515 3.828756,1.27822 z"
       id="colore_2_profilo_1" />
    <path
       style="color:#000000;fill:#000000;stroke-width:0.079223px;-inkscape-stroke:none"
       d="m 98.871238,143.12999 c 3.661022,-1.30876 8.323722,-2.36612 8.632812,-4.51613 l -3.66355,-18.94228 -1.33546,14.57815 -4.896728,1.84331 z"
       id="colore_1_polsino" />
    <path
       style="color:#000000;fill:#000000;-inkscape-stroke:none"
       d="m 103.87891,119.66406 -0.0781,0.004 -1.33203,14.55273 -4.904297,1.84766 1.275391,7.11523 0.04492,-0.0156 c 1.828676,-0.65372 3.908786,-1.24521 5.574216,-1.94336 0.83272,-0.34908 1.56301,-0.72481 2.10547,-1.15039 0.54247,-0.42558 0.89932,-0.90415 0.97852,-1.45508 l 0.002,-0.006 -3.66406,-18.9375 z m -0.0234,0.29492 3.60742,18.65235 c -0.0765,0.52241 -0.4155,0.9832 -0.94726,1.40039 -0.53314,0.41826 -1.25672,0.79106 -2.08594,1.13867 -1.64507,0.68962 -3.70584,1.27703 -5.527346,1.92578 l -1.25,-6.95703 4.890626,-1.8418 z"
       id="colore_1_polso2" />
    <path
       style="color:#000000;fill:#000000;-inkscape-stroke:none"
       d="m 102.65234,116.9668 -1.61132,16.0625 -3.824223,1.27734 0.189453,0.56641 4.19141,-1.39844 1.65039,-16.44727 z"
       id="colore_1_profilo_3" />
    <rect
       style="fill:#000000;fill-opacity:1;stroke:none;stroke-width:0.0864206"
       id="colore_1_quadrato_2"
       width="16.531717"
       height="18.110926"
       x="52.24921"
       y="102.62414" />
    <path
       id="colore_2_quadrato2"
       style="fill:#ff0000;fill-opacity:1;stroke-width:0.0864206"
       d="M 52.406532,102.62425 68.93825,120.73521 H 52.406532 Z"
       sodipodi:nodetypes="cccc"
       clip-path="none" />
    <path
       id="colore_2_quadrato_3"
       style="fill:#ff0000;fill-opacity:1;stroke-width:0.0904982"
       d="M 63.016476,78.290955 76.16141,93.48891 75.919285,97.540642 H 63.016476 Z"
       sodipodi:nodetypes="ccccc"
       clip-path="none"
       transform="matrix(0.9692553,0,0,0.9408426,8.0692443,47.478155)" />
    <path
       style="fill:#000000;fill-rule:evenodd;stroke:none;stroke-width:0.899999;stroke-linecap:square;stroke-miterlimit:5;paint-order:fill markers stroke;stop-color:#000000"
       d="M 37.647956,84.484562 H 52.102005 V 100.70979 Z"
       id="colore_1_quadrato_1" />
    <path
       id="colore_2_quadrato1"
       style="fill:#ff0000;fill-opacity:1;stroke-width:0.0904982"
       d="M 28.714754,39.149921 45.770857,58.399609 H 31.990465 c -1.879488,-3.948487 -4.120632,-7.617543 -3.638312,-13.39088 z"
       sodipodi:nodetypes="ccccc"
       clip-path="none"
       transform="matrix(0.9692553,0,0,0.9408426,7.8025873,47.617797)" />
    <path
       style="color:#000000;fill:#ff0000;stroke-width:0.954943;-inkscape-stroke:none"
       d="m 33.769654,80.124658 -0.513024,0.429995 48.783264,54.804077 0.02101,-0.92201 z"
       id="colore_2_profilo_2"
       clip-path="none"
       sodipodi:nodetypes="ccccc" />
    <path
       style="color:#000000;fill:#000000;stroke-width:0.66846;-inkscape-stroke:none"
       d="M 34.276309,82.112426 86.458585,140.71875"
       id="path24175" />
    <path
       style="color:#000000;fill:#000000;stroke-width:0.954943;-inkscape-stroke:none"
       d="M 34.532564,81.897926 34.01954,82.327921 82.13187,135.87959 82.06342,135.1365 Z"
       id="colore_1_profilo1"
       sodipodi:nodetypes="ccccc" />
    <path
       style="fill:#ff0000;fill-opacity:1;stroke:none;stroke-width:0.66846;stroke-dasharray:none;stroke-opacity:1"
       d="M 83.6958,160.25665 H 37.95393 l 0.914837,-8.88018 h 43.912199 z"
       id="colore_2_vita" />
    <path
       style="color:#000000;fill:#000000;stroke-linecap:square;-inkscape-stroke:none;paint-order:stroke fill markers;opacity:0.99"
       d="m 56.183594,74.263672 v 0.06445 85.824215 H 64.53125 V 74.263672 Z m 0.128906,0.128906 h 8.089844 V 160.02344 H 56.3125 Z"
       id="colore_1_copertura" />
    <path
       style="color:#000000;fill:#000000;fill-rule:evenodd;stroke-width:0.0990114;-inkscape-stroke:none"
       d="m 52.053349,71.878202 0.210396,-3.676221 c 8.3655,6.443783 12.207357,2.641813 16.516316,-0.102177 l -0.210397,3.880485 C 65.485327,78.153752 57.803442,82.197272 52.053349,71.878202 Z"
       id="colore_1_collo" />
    <path
       style="color:#000000;fill:#000000;fill-rule:evenodd;-inkscape-stroke:none"
       d="m 68.833984,68.005859 -0.08008,0.05273 c -2.157592,1.373977 -4.191238,3.003198 -6.720703,3.488281 -2.529465,0.485083 -5.562167,-0.167985 -9.738281,-3.384766 l -0.07617,-0.05664 -0.214844,3.785156 0.0059,0.01172 c 2.880944,5.17012 6.261624,6.756059 9.308593,6.259765 3.046969,-0.496294 5.747343,-3.062593 7.294922,-6.160156 l 0.0059,-0.0078 z m -0.109375,0.1875 -0.205078,3.771485 c -1.537365,3.072529 -4.21666,5.610943 -7.216797,6.099609 -2.999871,0.488623 -6.331822,-1.061386 -9.199218,-6.199219 l 0.205078,-3.576172 c 4.14911,3.174838 7.200146,3.843339 9.74414,3.355469 2.527552,-0.484716 4.550466,-2.09196 6.671875,-3.451172 z"
       id="colore_1_collo1" />
    <path
       style="color:#000000;fill:#ff0000;-inkscape-stroke:none"
       d="m 68.40625,68.078125 c -3.491963,2.557123 -6.385309,3.379224 -8.931641,3.169922 -2.546331,-0.209302 -4.77786,-1.46143 -6.908203,-3.16211 l -0.414062,0.515625 c 2.18267,1.742454 4.53825,3.080344 7.267578,3.304688 2.729328,0.224344 5.798318,-0.67433 9.376953,-3.294922 z"
       id="colore_2_profilo_collo" />
    <path
       style="fill:#000000;fill-rule:evenodd;stroke:none;stroke-width:0.899999;stroke-linecap:square;stroke-miterlimit:5;paint-order:fill markers stroke;stop-color:#000000"
       d="m 70.324603,121.18899 h 11.182228 c -0.517011,1.36202 -0.774553,2.91207 0.224484,10.33829 0.103975,0.77288 0.133072,2.0961 0.267533,2.99093 z"
       id="colore_1_quadrato_3"
       sodipodi:nodetypes="ccscc" />
    <text
       xml:space="preserve"
       style="font-style:normal;font-variant:normal;font-weight:bold;font-stretch:normal;font-size:3.12646px;line-height:100%;font-family:'Brush Script Std';-inkscape-font-specification:'Brush Script Std Bold';text-align:center;text-anchor:middle;fill:#ffffff;fill-rule:evenodd;stroke:none;stroke-width:2.49254;stroke-linecap:square;stroke-miterlimit:5;paint-order:fill markers stroke;stop-color:#000000"
       x="73.472855"
       y="100.26546"
       id="nome_colore_3"><tspan
         sodipodi:role="line"
         id="tspan25258"
         style="font-style:normal;font-variant:normal;font-weight:bold;font-stretch:normal;font-family:'Brush Script Std';-inkscape-font-specification:'Brush Script Std Bold';fill:#ffffff;stroke:none;stroke-width:2.49255"
         x="73.472855"
         y="100.26546">Nome</tspan></text>
    <text
       xml:space="preserve"
       style="font-style:normal;font-variant:normal;font-weight:bold;font-stretch:normal;font-size:8.49252px;line-height:100%;font-family:'JACKPORT REGULAR NCV';-inkscape-font-specification:'JACKPORT REGULAR NCV Bold';text-align:center;text-anchor:middle;fill:#ffffff;fill-rule:evenodd;stroke:none;stroke-width:6.7706;stroke-linecap:square;stroke-miterlimit:5;paint-order:fill markers stroke;stop-color:#000000"
       x="27.441669"
       y="104.83836"
       id="iniziali_colore_3"
       transform="scale(1.0728751,0.93207494)"><tspan
         sodipodi:role="line"
         id="tspan25366"
         style="font-style:normal;font-variant:normal;font-weight:bold;font-stretch:normal;font-family:'JACKPORT REGULAR NCV';-inkscape-font-specification:'JACKPORT REGULAR NCV Bold';fill:#ffffff;stroke-width:6.77061"
         x="27.441669"
         y="104.83836">G.C.</tspan></text>
  </g>
</svg>
